<svg width="139" height="50" viewBox="0 0 139 50" fill="none" xmlns="http://www.w3.org/2000/svg">
<path d="M10.7 0H8.9C6.7 0 5 1.6 5 3.9V6.1C5 8.4 6.8 10 8.9 10H10.7C12.9 10 14.6 8.4 14.6 6.1V3.9C14.6 1.6 12.9 0 10.7 0Z" fill="#FF7A00"/>
<path d="M40.4 13.9C34.9 13.9 31.4 16.8 29.7 20L29.4 14.7H21.2V48.7H29.7999V29.9C29.7999 24.2 32.8 20.9 37.4 20.9C42 20.9 43.7999 23.8 43.7999 29V48.7H52.2999V26.9C52.1999 19.2 48.8 13.9 40.4 13.9Z" fill="#FF7A00"/>
<path d="M0 21.8H5.7V48.8H14.2V14.8H0V21.8Z" fill="#FF7A00"/>
<path d="M96.3 13.9C85.6 13.9 79 20.9 79 31.3V32.2C79 42.6 85.5 49.6 96.3 49.6C105.1 49.6 110.9 45.1 112.6 38H104.1C103.1 40.9 100.7 42.9 96.3 42.9C91.2 42.9 88.2 39.8 87.7 33.7H112.7C113.4 22 107.7 13.9 96.3 13.9ZM88 27.9C88.8 23 91.6 20.5 96.3 20.5C101.1 20.5 103.6 23.3 104.1 27.9H88Z" fill="#FF7A00"/>
<path d="M66.7001 38.3V21.8H75.7001V14.8H66.7001V3.20001H58.1001V39.2C58.1001 46 61.9001 49.6 69.8001 49.6C71.8001 49.6 74.2001 49.3 75.8001 48.7V42C74.9001 42.3 73.3001 42.7 71.7001 42.7C68.0001 42.8 66.7001 41.4 66.7001 38.3Z" fill="#FF7A00"/>
<path d="M136.8 14.2C131.9 14.2 128.4 17.1 126.7 21.4L126.5 14.8H118.3V48.8H126.9V31.9C126.9 25.4 129.9 21.7 136.4 21.7C137.3 21.7 138.2 21.8 138.8 21.8V14.3C138.2 14.2 137.4 14.2 136.8 14.2Z" fill="#FF7A00"/>
</svg>
